Coordinates
version=1
nRows=16
nColumns=63
inDegrees=yes

Units are S.I. units (second, meters, Newtons, ...)
If the header above contains a line with 'inDegrees', this indicates whether rotational values are in degrees (yes) or radians (no).

endheader
time	pelvis_tilt	pelvis_list	pelvis_rotation	pelvis_tx	pelvis_ty	pelvis_tz	hip_flexion_r	hip_adduction_r	hip_rotation_r	knee_angle_r	knee_angle_r_beta	ankle_angle_r	subtalar_angle_r	mtp_angle_r	hip_flexion_l	hip_adduction_l	hip_rotation_l	knee_angle_l	knee_angle_l_beta	ankle_angle_l	subtalar_angle_l	mtp_angle_l	L5_S1_Flex_Ext	L5_S1_Lat_Bending	L5_S1_axial_rotation	L4_L5_Flex_Ext	L4_L5_Lat_Bending	L4_L5_axial_rotation	L3_L4_Flex_Ext	L3_L4_Lat_Bending	L3_L4_axial_rotation	L2_L3_Flex_Ext	L2_L3_Lat_Bending	L2_L3_axial_rotation	L1_L2_Flex_Ext	L1_L2_Lat_Bending	L1_L2_axial_rotation	L1_T12_Flex_Ext	L1_T12_Lat_Bending	L1_T12_axial_rotation	Abs_r3	Abs_r2	Abs_r1	Abs_t1	Abs_t2	neck_flexion	neck_bending	neck_rotation	arm_flex_r	arm_add_r	arm_rot_r	elbow_flex_r	pro_sup_r	wrist_flex_r	wrist_dev_r	arm_flex_l	arm_add_l	arm_rot_l	elbow_flex_l	pro_sup_l	wrist_flex_l	wrist_dev_l
0.000000	4.834235	-4.413062	90.030644	0.200572	0.929101	0.642324	5.071269	0.451261	-8.604624	6.393977	0.111596	23.226196	17.119394	0.000000	7.254143	-1.432081	-8.407310	9.115053	0.159088	25.434242	11.554922	0.000000	0.133306	0.188839	-1.620185	0.247562	0.251156	-1.721447	0.219008	0.459144	-1.721447	0.152355	0.459144	-1.417662	0.123788	0.385081	-1.316400	0.076171	0.292512	-1.215139	0.952189	2.136189	-9.010984	0.000000	0.000000	8.994845	1.546559	18.343814	19.233428	-6.665200	76.464751	40.070049	75.302975	6.874453	-0.972665	8.469482	-8.313441	48.119779	46.815374	45.879073	-0.518122	10.816982
0.022222	5.017126	-4.513374	89.964180	0.200099	0.929258	0.641901	5.095987	0.623161	-8.029862	6.446433	0.112511	23.257811	16.685889	0.000000	7.157237	-1.476188	-6.884554	8.913616	0.155572	24.738297	10.040896	0.000000	0.137836	0.214876	-1.637243	0.255976	0.285785	-1.739571	0.226451	0.522450	-1.739571	0.157533	0.522450	-1.432588	0.127995	0.438175	-1.330260	0.078760	0.332843	-1.227932	0.984550	2.430722	-9.105855	0.000000	0.000000	8.225042	1.359384	18.491304	19.048397	-6.805003	75.768888	40.262178	75.300436	7.113573	-0.744141	8.103077	-8.075285	47.563174	46.746669	46.326051	-0.681389	9.849209
0.044444	5.169045	-4.596329	89.894002	0.199690	0.929369	0.641482	5.113774	0.767314	-7.528239	6.482712	0.113145	23.291298	16.294018	0.000000	7.072755	-1.508066	-5.565531	8.754283	0.152791	24.148813	8.655835	0.000000	0.143798	0.237468	-1.656639	0.267048	0.315833	-1.760179	0.236247	0.577381	-1.760179	0.164347	0.577381	-1.449559	0.133531	0.484246	-1.346020	0.082166	0.367839	-1.242480	1.027138	2.686291	-9.213731	0.000000	0.000000	7.703972	1.200540	18.648946	18.951372	-6.919494	75.395231	40.434385	75.002080	7.310925	-0.459282	7.771015	-7.861506	47.002102	46.684709	46.688749	-0.829084	9.283155
0.066667	5.292173	-4.663576	89.821900	0.199340	0.929439	0.641073	5.125694	0.885425	-7.097332	6.504539	0.113526	23.325841	15.944400	0.000000	7.000818	-1.529074	-4.443209	8.633217	0.150678	23.660683	7.406261	0.000000	0.150929	0.256825	-1.677999	0.280290	0.341578	-1.782874	0.247961	0.624446	-1.782874	0.172497	0.624446	-1.468249	0.140153	0.523719	-1.363374	0.086241	0.397823	-1.258499	1.078072	2.905261	-9.332528	0.000000	0.000000	7.405278	1.067362	18.815863	18.930097	-7.010167	75.298481	40.586818	74.463166	7.469810	-0.132019	7.472372	-7.672155	46.448231	46.628124	46.973416	-0.961330	9.059445
0.088889	5.388691	-4.716760	89.749663	0.199043	0.929475	0.640678	5.132811	0.979200	-6.734717	6.513636	0.113684	23.360628	15.637652	0.000000	6.941549	-1.540567	-3.510555	8.546583	0.149166	23.268804	6.298697	0.000000	0.158965	0.273156	-1.700947	0.295213	0.363298	-1.807257	0.261163	0.664153	-1.807257	0.181681	0.664153	-1.488329	0.147614	0.557021	-1.382020	0.090832	0.423119	-1.275711	1.135468	3.090001	-9.460160	0.000000	0.000000	7.302603	0.957181	18.991179	18.972315	-7.078514	75.433341	40.719625	73.738956	7.593528	0.223718	7.206223	-7.507281	45.913228	46.575543	47.186304	-1.078255	9.118708
0.111111	5.460782	-4.757529	89.679081	0.198796	0.929480	0.640305	5.136190	1.050346	-6.437969	6.511727	0.113651	23.394843	15.374394	0.000000	6.895068	-1.543903	-2.760537	8.490545	0.148188	22.968069	5.339667	0.000000	0.167641	0.286671	-1.725109	0.311326	0.381272	-1.832928	0.275417	0.697011	-1.832928	0.191597	0.697011	-1.509470	0.155671	0.584579	-1.401651	0.095790	0.444053	-1.293832	1.197443	3.242876	-9.594539	0.000000	0.000000	7.369590	0.867333	19.174014	19.065769	-7.126032	75.754512	40.832954	72.884709	7.685381	0.593998	6.971644	-7.366933	45.408761	46.525598	47.333661	-1.179982	9.401568
0.133333	5.510626	-4.787528	89.611944	0.198592	0.929460	0.639959	5.136895	1.100568	-6.204664	6.500535	0.113456	23.427674	15.155245	0.000000	6.861497	-1.540439	-2.186124	8.461269	0.147677	22.753375	4.535694	0.000000	0.176695	0.297577	-1.750109	0.328141	0.395778	-1.859491	0.290292	0.723529	-1.859491	0.201945	0.723529	-1.531345	0.164079	0.606820	-1.421963	0.100964	0.460947	-1.312582	1.262116	3.366254	-9.733580	0.000000	0.000000	7.579882	0.795150	19.363493	19.198204	-7.154214	76.216695	40.926951	71.955687	7.748671	0.964889	6.767711	-7.251160	44.946495	46.476918	47.421738	-1.266636	9.848654
0.155556	5.540406	-4.808404	89.550040	0.198427	0.929421	0.639646	5.135989	1.131574	-6.032379	6.481784	0.113128	23.458304	14.980821	0.000000	6.840957	-1.531530	-1.780283	8.454919	0.147566	22.619614	3.893300	0.000000	0.185863	0.306086	-1.775572	0.345167	0.407094	-1.886545	0.305355	0.744216	-1.886545	0.212423	0.744216	-1.553625	0.172593	0.624170	-1.442652	0.106202	0.474126	-1.331679	1.327603	3.462500	-9.875198	0.000000	0.000000	7.907123	0.737967	19.558738	19.357361	-7.164553	76.774592	41.001764	71.007150	7.786698	1.322462	6.593500	-7.160012	44.538099	46.428132	47.456783	-1.338344	10.400591
0.177778	5.552302	-4.821805	89.495161	0.198297	0.929366	0.639372	5.134536	1.145069	-5.918690	6.457198	0.112699	23.485921	14.851743	0.000000	6.833571	-1.518535	-1.535983	8.467658	0.147789	22.561684	3.419008	0.000000	0.194882	0.312405	-1.801123	0.361915	0.415498	-1.913693	0.320171	0.759581	-1.913693	0.222730	0.759581	-1.575983	0.180967	0.637055	-1.463412	0.111355	0.483915	-1.350842	1.392021	3.533984	-10.017305	0.000000	0.000000	8.324956	0.693116	19.758872	19.530985	-7.158544	77.382906	41.057542	70.094359	7.802765	1.652785	6.448087	-7.093539	44.195239	46.377872	47.445048	-1.395229	10.998006
0.200000	5.548497	-4.829375	89.449095	0.198195	0.929302	0.639143	5.133602	1.142758	-5.861171	6.428498	0.112198	23.509710	14.768629	0.000000	6.839459	-1.502809	-1.446191	8.495653	0.148277	22.574478	3.119343	0.000000	0.203487	0.316744	-1.826387	0.377896	0.421269	-1.940536	0.334309	0.770131	-1.940536	0.232566	0.770131	-1.598089	0.188958	0.645904	-1.483939	0.116273	0.490636	-1.369790	1.453489	3.583069	-10.157816	0.000000	0.000000	8.807024	0.657931	19.963016	19.706819	-7.137682	77.996337	41.094432	69.272573	7.800172	1.941927	6.330547	-7.051788	43.929584	46.324767	47.392781	-1.437417	11.581527
0.222222	5.531171	-4.832764	89.413633	0.198118	0.929233	0.638964	5.134249	1.126350	-5.857399	6.397410	0.111656	23.528858	14.732098	0.000000	6.858743	-1.485711	-1.503876	8.535067	0.148965	22.652891	3.000825	0.000000	0.211416	0.319312	-1.850989	0.392620	0.424685	-1.966676	0.347335	0.776376	-1.966676	0.241627	0.776376	-1.619615	0.196321	0.651142	-1.503929	0.120803	0.494615	-1.388242	1.510123	3.612125	-10.294646	0.000000	0.000000	9.326969	0.629746	20.170295	19.872607	-7.103460	78.569587	41.112580	68.597054	7.782221	2.175957	6.239957	-7.034811	43.752799	46.267447	47.306233	-1.465033	12.091779
0.244444	5.510562	-4.855172	89.388092	0.198062	0.929159	0.638890	5.160890	1.105349	-5.915805	6.367833	0.111140	23.520157	14.771213	0.000000	6.928333	-1.486020	-1.792623	8.613279	0.150330	22.757984	3.170497	0.000000	0.217054	0.321442	-1.878818	0.403092	0.427517	-1.996244	0.356599	0.781553	-1.996244	0.248071	0.781553	-1.643966	0.201557	0.655484	-1.526540	0.124025	0.497913	-1.409114	1.550398	3.636212	-10.449423	0.000000	0.000000	9.787816	0.636198	20.444333	19.999305	-7.066001	78.929009	41.165181	68.570181	7.760804	2.263739	6.140300	-7.075252	43.695734	46.256245	47.110549	-1.474357	12.407510
0.266667	5.479784	-4.868692	89.396890	0.198017	0.929121	0.638937	5.188353	1.071171	-6.046532	6.350190	0.110832	23.519552	14.868377	0.000000	7.015313	-1.488746	-2.227878	8.703002	0.151896	22.948715	3.583204	0.000000	0.220029	0.321563	-1.904462	0.408616	0.427678	-2.023491	0.361486	0.781848	-2.023491	0.251471	0.781848	-1.666404	0.204319	0.655731	-1.547375	0.125725	0.498101	-1.428346	1.571646	3.637582	-10.592046	0.000000	0.000000	10.195747	0.633035	20.700532	20.071616	-7.010657	79.075909	41.180609	68.842791	7.738919	2.239981	6.112431	-7.148370	43.900084	46.250726	46.639938	-1.547560	12.330387
0.288889	5.440927	-4.877074	89.431521	0.197965	0.929111	0.639069	5.214210	1.026673	-6.226188	6.334249	0.110553	23.518440	15.007635	0.000000	7.104895	-1.490250	-2.797479	8.766994	0.153013	23.220528	4.242055	0.000000	0.221739	0.320065	-1.924246	0.411792	0.425687	-2.044511	0.364295	0.778207	-2.044511	0.253426	0.778207	-1.683715	0.205907	0.652677	-1.563449	0.126702	0.495781	-1.443184	1.583860	3.620642	-10.702076	0.000000	0.000000	10.561477	0.600467	20.905283	20.057959	-6.950339	78.957992	41.177723	69.377439	7.733387	2.099678	6.116733	-7.223753	44.216336	46.217266	46.335247	-1.561134	11.793011
0.311111	5.401449	-4.885328	89.514368	0.197855	0.929122	0.639313	5.245008	0.975367	-6.470857	6.325068	0.110393	23.513525	15.193116	0.000000	7.219765	-1.499813	-3.540271	8.832227	0.154151	23.594268	5.256756	0.000000	0.222767	0.318704	-1.944677	0.413701	0.423876	-2.066219	0.365984	0.774896	-2.066219	0.254601	0.774896	-1.701592	0.206862	0.649901	-1.580050	0.127289	0.493672	-1.458508	1.591204	3.605241	-10.815710	0.000000	0.000000	10.895616	0.523173	21.122937	19.992574	-6.873621	78.652297	41.135160	70.221609	7.783455	1.879442	6.178174	-7.336619	44.807150	46.201840	46.027623	-1.746051	10.728989
0.333333	5.359779	-4.903111	89.614879	0.197714	0.929130	0.639621	5.287312	0.918195	-6.741619	6.315934	0.110234	23.492662	15.408007	0.000000	7.355233	-1.506405	-4.324031	8.882950	0.155037	24.042711	6.406831	0.000000	0.225865	0.316914	-1.958566	0.419454	0.421495	-2.080976	0.371074	0.770544	-2.080976	0.258141	0.770544	-1.713745	0.209738	0.646250	-1.591335	0.129059	0.490899	-1.468924	1.613332	3.584990	-10.892956	0.000000	0.000000	11.195823	0.405441	21.273105	19.888274	-6.800661	78.275728	41.063669	71.229105	7.848425	1.573512	6.280354	-7.466633	45.516916	46.151466	46.023431	-1.797313	9.365341
